<?xml version="1.0" standalone="no"?>
<!DOCTYPE svg PUBLIC "-//W3C//DTD SVG 20010904//EN"
 "http://www.w3.org/TR/2001/REC-SVG-20010904/DTD/svg10.dtd">
<svg version="1.0" xmlns="http://www.w3.org/2000/svg"
 width="512.000000pt" height="512.000000pt" viewBox="0 0 512.000000 512.000000"
 preserveAspectRatio="xMidYMid meet">
<metadata>
Created by potrace 1.14, written by Peter Selinger 2001-2017
</metadata>
<g transform="translate(0.000000,512.000000) scale(0.100000,-0.100000)"
fill="#000000" stroke="none">
<path d="M1640 4881 c-41 -14 -77 -28 -80 -31 -3 -3 -23 -14 -45 -25 -55 -27
-224 -197 -217 -217 1 -5 -3 -8 -8 -8 -12 0 -33 -45 -35 -75 -2 -36 23 -101
113 -285 31 -63 57 -117 57 -120 4 -15 31 -66 38 -71 5 -3 9 -10 9 -15 1 -5
14 -38 30 -73 16 -36 36 -81 45 -100 8 -20 42 -92 75 -161 90 -187 131 -276
143 -310 4 -11 18 -47 36 -87 10 -24 16 -43 14 -43 -2 0 2 -18 10 -40 11 -32
12 -42 2 -45 -7 -2 -68 -7 -137 -10 -69 -3 -147 -7 -175 -9 -27 -3 -86 -7
-130 -11 -198 -15 -215 -19 -237 -58 -18 -34 -22 -458 -4 -482 12 -17 26 -18
127 -16 197 5 234 7 245 14 6 3 14 4 18 0 12 -12 273 -22 329 -12 24 4 37 3
37 -5 0 -6 4 -5 9 3 5 8 16 11 24 8 8 -3 18 -3 21 0 3 4 21 8 40 10 33 3 42
-4 52 -42 1 -5 9 -29 17 -52 9 -22 13 -44 10 -47 -4 -3 -1 -6 5 -6 7 0 11 -3
10 -7 -3 -14 24 -103 33 -109 5 -3 9 -13 9 -23 0 -10 8 -38 19 -62 20 -47 28
-69 30 -82 0 -4 8 -21 16 -37 8 -16 16 -33 16 -37 2 -10 4 -16 34 -98 30 -81
47 -147 50 -190 0 -17 4 -35 7 -40 3 -6 4 -48 2 -95 -3 -80 -25 -170 -65 -265
-7 -16 -13 -32 -14 -35 -1 -3 -6 -16 -12 -30 -65 -153 -83 -217 -82 -295 0
-60 16 -161 27 -180 4 -5 7 -15 8 -21 1 -7 13 -35 28 -63 14 -28 23 -51 19
-51 -3 0 0 -7 7 -15 7 -8 9 -15 5 -15 -4 0 -2 -6 4 -14 6 -7 22 -34 36 -59 21
-40 106 -158 139 -193 6 -6 36 -42 66 -80 51 -64 117 -133 152 -160 48 -38
113 -28 147 21 20 30 24 48 24 110 -1 77 -11 163 -21 180 -4 6 -7 15 -8 20 -3
29 -18 76 -25 81 -5 3 -9 15 -9 28 0 12 -3 26 -7 30 -4 3 -8 12 -9 19 -33 160
-27 195 42 256 76 67 108 74 363 77 173 2 232 -1 263 -12 41 -14 88 -58 88
-81 0 -7 4 -13 9 -13 5 0 11 -10 14 -22 3 -13 17 -67 31 -121 14 -55 27 -112
28 -128 1 -16 5 -29 8 -29 3 0 6 -12 6 -27 1 -16 5 -39 8 -53 4 -14 9 -56 12
-95 3 -38 8 -77 11 -85 3 -8 7 -21 9 -29 1 -8 9 -18 16 -22 7 -5 9 -9 3 -9 -5
0 1 -7 15 -15 26 -14 82 -11 88 6 2 5 8 9 12 9 23 0 82 79 162 218 46 79 108
215 108 236 0 8 5 18 10 21 6 4 8 11 5 16 -4 5 -1 9 4 9 6 0 10 3 9 8 -1 4 4
27 11 52 16 56 21 76 27 120 8 51 9 199 2 240 -13 77 -88 272 -108 285 -6 4
-8 10 -5 15 3 5 -1 14 -8 22 -7 7 -22 28 -32 46 -11 17 -23 32 -27 32 -4 0 -8
6 -8 13 0 7 -15 21 -32 32 -18 10 -33 18 -33 16 0 -1 -13 3 -30 9 -56 22 -110
41 -120 43 -5 2 -16 6 -22 10 -7 5 -21 10 -30 12 -34 8 -108 37 -155 60 -25
13 -49 21 -52 18 -3 -4 -6 -1 -6 5 0 7 -7 12 -15 12 -8 0 -15 4 -15 9 0 5 -8
12 -18 15 -29 10 -94 76 -147 151 -27 39 -53 72 -57 73 -5 2 -8 10 -8 18 0 8
-4 14 -10 14 -5 0 -10 7 -10 15 0 8 -4 15 -10 15 -5 0 -10 6 -10 14 0 8 -4 16
-8 18 -14 5 -79 120 -107 188 -14 36 -34 81 -43 100 -9 19 -17 37 -17 40 -1 3
-10 23 -20 45 -10 22 -22 47 -26 56 -6 13 3 15 55 16 85 1 320 12 386 18 30 3
93 8 140 10 47 2 85 5 85 5 0 1 47 3 105 5 58 3 120 6 138 8 17 2 32 -1 32 -6
0 -4 6 -5 12 0 13 7 29 9 116 16 42 3 62 18 62 44 0 14 -95 87 -128 97 -12 4
-22 12 -22 17 0 6 -4 8 -9 5 -5 -4 -11 -3 -13 2 -1 4 -28 20 -58 35 -51 25
-117 61 -215 117 -22 12 -58 35 -80 49 -64 44 -94 52 -210 56 -61 2 -110 4
-110 4 0 1 -47 4 -105 6 -107 5 -155 9 -219 21 -20 3 -59 6 -88 7 -56 0 -55
-1 -87 85 -9 24 -14 47 -11 52 3 4 1 10 -5 12 -5 1 -11 13 -13 25 -2 12 -6 26
-10 29 -4 4 -7 14 -7 21 0 8 -13 42 -29 76 -29 63 -34 74 -91 207 -18 41 -37
81 -42 88 -6 6 -7 12 -2 12 5 0 4 4 -2 8 -14 9 -177 340 -177 359 0 7 -4 13
-9 13 -4 0 -8 7 -8 15 0 8 -4 23 -9 33 -5 9 -13 28 -18 42 -6 14 -23 52 -39
84 -16 33 -28 63 -26 68 1 4 -2 8 -6 8 -4 0 -34 55 -66 123 -32 67 -63 130
-68 140 -15 30 -79 197 -79 207 -2 27 -101 52 -190 48 -30 -1 -88 -13 -129
-27z"/>
</g>
</svg>
